<svg width="45" height="45" viewBox="0 0 45 45" fill="none" xmlns="http://www.w3.org/2000/svg">
<g opacity="0.2">
<path d="M18.9844 43.3334C18.7414 43.3334 18.5025 43.2704 18.2911 43.1506L6.33797 36.3795C6.12154 36.2569 5.94151 36.079 5.81626 35.8641C5.691 35.6492 5.62501 35.4049 5.625 35.1561V21.0936C5.62501 20.8448 5.691 20.6005 5.81626 20.3856C5.94151 20.1707 6.12154 19.9928 6.33797 19.8702L18.2911 13.0991C18.5026 12.9794 18.7414 12.9165 18.9844 12.9165C19.2274 12.9165 19.4662 12.9794 19.6777 13.0991L31.6308 19.8702C31.8472 19.9928 32.0272 20.1707 32.1525 20.3856C32.2777 20.6005 32.3437 20.8448 32.3438 21.0936V35.1561C32.3437 35.4049 32.2777 35.6492 32.1525 35.8641C32.0272 36.079 31.8472 36.2569 31.6308 36.3795L19.6777 43.1506C19.4662 43.2704 19.2274 43.3334 18.9844 43.3334ZM8.4375 34.3363L18.9844 40.31L29.5312 34.3363V21.9134L18.9844 15.9397L8.4375 21.912V34.3363Z" fill="#008C36"/>
<path d="M39.3749 23.9061H36.5624V10.6634L26.0155 4.68969L14.7557 11.067L13.3691 8.62016L25.3223 1.84907C25.5337 1.7294 25.7726 1.6665 26.0155 1.6665C26.2585 1.6665 26.4974 1.7294 26.7088 1.84907L38.662 8.62016C38.8784 8.7428 39.0584 8.92066 39.1837 9.13559C39.3089 9.35052 39.3749 9.59483 39.3749 9.8436V23.9061Z" fill="#008C36"/>
</g>
</svg>
