<svg width="14" height="20" viewBox="0 0 14 20" fill="none" xmlns="http://www.w3.org/2000/svg">
<path fill-rule="evenodd" clip-rule="evenodd" d="M0 1.5V16.5C0 16.8978 0.158035 17.2794 0.43934 17.5607C0.720644 17.842 1.10218 18 1.5 18H8V16.2325C7.61872 16.0124 7.32072 15.6726 7.15224 15.2658C6.98376 14.8591 6.9542 14.4081 7.06815 13.9828C7.1821 13.5575 7.43319 13.1818 7.78248 12.9137C8.13177 12.6457 8.55973 12.5004 9 12.5004C9.44027 12.5004 9.86823 12.6457 10.2175 12.9137C10.5668 13.1818 10.8179 13.5575 10.9319 13.9828C11.0458 14.4081 11.0162 14.8591 10.8478 15.2658C10.6793 15.6726 10.3813 16.0124 10 16.2325V18H12.5C12.8978 18 13.2794 17.842 13.5607 17.5607C13.842 17.2794 14 16.8978 14 16.5V1.5C14 1.10218 13.842 0.720644 13.5607 0.43934C13.2794 0.158035 12.8978 0 12.5 0H1.5C1.10218 0 0.720644 0.158035 0.43934 0.43934C0.158035 0.720644 0 1.10218 0 1.5ZM9 15.5C9.26522 15.5 9.51957 15.3946 9.70711 15.2071C9.89464 15.0196 10 14.7652 10 14.5C10 14.2348 9.89464 13.9804 9.70711 13.7929C9.51957 13.6054 9.26522 13.5 9 13.5C8.73478 13.5 8.48043 13.6054 8.29289 13.7929C8.10536 13.9804 8 14.2348 8 14.5C8 14.7652 8.10536 15.0196 8.29289 15.2071C8.48043 15.3946 8.73478 15.5 9 15.5ZM4 3.5C4 3.36739 4.05268 3.24021 4.14645 3.14645C4.24021 3.05268 4.36739 3 4.5 3H9.5C9.63261 3 9.75978 3.05268 9.85355 3.14645C9.94732 3.24021 10 3.36739 10 3.5C10 3.63261 9.94732 3.75979 9.85355 3.85355C9.75978 3.94732 9.63261 4 9.5 4H4.5C4.36739 4 4.24021 3.94732 4.14645 3.85355C4.05268 3.75979 4 3.63261 4 3.5ZM2.5 6C2.36739 6 2.24021 6.05268 2.14645 6.14645C2.05268 6.24021 2 6.36739 2 6.5C2 6.63261 2.05268 6.75979 2.14645 6.85355C2.24021 6.94732 2.36739 7 2.5 7H11.5C11.6326 7 11.7598 6.94732 11.8536 6.85355C11.9473 6.75979 12 6.63261 12 6.5C12 6.36739 11.9473 6.24021 11.8536 6.14645C11.7598 6.05268 11.6326 6 11.5 6H2.5ZM2 8.5C2 8.36739 2.05268 8.24021 2.14645 8.14645C2.24021 8.05268 2.36739 8 2.5 8H11.5C11.6326 8 11.7598 8.05268 11.8536 8.14645C11.9473 8.24021 12 8.36739 12 8.5C12 8.63261 11.9473 8.75979 11.8536 8.85355C11.7598 8.94732 11.6326 9 11.5 9H2.5C2.36739 9 2.24021 8.94732 2.14645 8.85355C2.05268 8.75979 2 8.63261 2 8.5ZM2.5 10C2.36739 10 2.24021 10.0527 2.14645 10.1464C2.05268 10.2402 2 10.3674 2 10.5C2 10.6326 2.05268 10.7598 2.14645 10.8536C2.24021 10.9473 2.36739 11 2.5 11H11.5C11.6326 11 11.7598 10.9473 11.8536 10.8536C11.9473 10.7598 12 10.6326 12 10.5C12 10.3674 11.9473 10.2402 11.8536 10.1464C11.7598 10.0527 11.6326 10 11.5 10H2.5Z" fill="#008C36"/>
<path d="M8 20V18H10V20L9 19.25L8 20Z" fill="#008C36"/>
</svg>
