<svg width="45" height="45" viewBox="0 0 45 45" fill="none" xmlns="http://www.w3.org/2000/svg">
<path d="M18.9844 43.3339C18.7414 43.3339 18.5025 43.2709 18.2911 43.1511L6.33797 36.38C6.12154 36.2574 5.94151 36.0795 5.81626 35.8646C5.691 35.6497 5.62501 35.4053 5.625 35.1566V21.0941C5.62501 20.8453 5.691 20.601 5.81626 20.3861C5.94151 20.1711 6.12154 19.9933 6.33797 19.8706L18.2911 13.0996C18.5026 12.9799 18.7414 12.917 18.9844 12.917C19.2274 12.917 19.4662 12.9799 19.6777 13.0996L31.6308 19.8706C31.8472 19.9933 32.0272 20.1711 32.1525 20.3861C32.2777 20.601 32.3437 20.8453 32.3438 21.0941V35.1566C32.3437 35.4053 32.2777 35.6497 32.1525 35.8646C32.0272 36.0795 31.8472 36.2574 31.6308 36.38L19.6777 43.1511C19.4662 43.2709 19.2274 43.3339 18.9844 43.3339ZM8.4375 34.3367L18.9844 40.3105L29.5312 34.3367V21.9139L18.9844 15.9402L8.4375 21.9125V34.3367Z" fill="#010603"/>
<path d="M39.3749 23.9066H36.5624V10.6639L26.0155 4.69018L14.7557 11.0675L13.3691 8.62065L25.3223 1.84955C25.5337 1.72989 25.7726 1.66699 26.0155 1.66699C26.2585 1.66699 26.4974 1.72989 26.7088 1.84955L38.662 8.62065C38.8784 8.74329 39.0584 8.92115 39.1837 9.13608C39.3089 9.35101 39.3749 9.59532 39.3749 9.84408V23.9066Z" fill="#010603"/>
</svg>
