<svg width="90" height="132" viewBox="0 0 90 132" fill="none" xmlns="http://www.w3.org/2000/svg">
<g opacity="0.2" clip-path="url(#clip0_92_101360)">
<path d="M73.5388 76.6509L56.7683 84.608L51.4635 73.4277C50.7618 71.9448 50.677 70.2441 51.2277 68.6988C51.7785 67.1535 52.9199 65.8898 54.4013 65.1851L59.9915 62.5327L57.3391 56.9426L46.1587 62.2473L43.5064 56.6572L54.6867 51.3524C56.1696 50.6506 57.8703 50.5658 59.4156 51.1166C60.9609 51.6674 62.2245 52.8087 62.9293 54.2902L65.5816 59.8804C66.2834 61.3632 66.3682 63.0639 65.8174 64.6092C65.2667 66.1545 64.1253 67.4182 62.6439 68.1229L57.0537 70.7753L59.7061 76.3655L70.8864 71.0607L73.5388 76.6509ZM40.2832 78.7324L29.1028 84.0372C27.62 84.739 25.9193 84.8238 24.374 84.273C22.8287 83.7222 21.565 82.5809 20.8603 81.0994L7.59836 53.1486C6.8966 51.6657 6.8118 49.965 7.36257 48.4197C7.91335 46.8744 9.0547 45.6107 10.5361 44.906L21.7165 39.6012C23.1993 38.8995 24.9 38.8147 26.4453 39.3655C27.9907 39.9162 29.2543 41.0576 29.959 42.539L43.221 70.4899C43.9227 71.9727 44.0075 73.6734 43.4567 75.2187C42.906 76.7641 41.7646 78.0277 40.2832 78.7324ZM13.1885 50.4962L26.4504 78.447L37.6308 73.1423L24.3689 45.1914L13.1885 50.4962ZM17.9225 89.342L1.15197 97.2991C-0.330881 98.0009 -2.03157 98.0857 -3.57688 97.5349C-5.12219 96.9841 -6.38586 95.8428 -7.09058 94.3613L-20.3525 66.4105C-21.0543 64.9276 -21.1391 63.2269 -20.5883 61.6816C-20.0375 60.1363 -18.8962 58.8726 -17.4147 58.1679L-0.644197 50.2108L2.00819 55.801L-14.7623 63.7581L-1.50041 91.709L15.2701 83.7518L17.9225 89.342Z" fill="#008C36"/>
</g>
<defs>
<clipPath id="clip0_92_101360">
<rect width="99" height="99" fill="white" transform="translate(-42 42.438) rotate(-25.3831)"/>
</clipPath>
</defs>
</svg>
