<svg width="132" height="132" viewBox="0 0 132 132" fill="none" xmlns="http://www.w3.org/2000/svg">
<g opacity="0.2" clip-path="url(#clip0_92_101358)">
<path d="M115.539 76.6509L98.7683 84.608L93.4635 73.4277C92.7618 71.9448 92.677 70.2441 93.2277 68.6988C93.7785 67.1535 94.9199 65.8898 96.4013 65.1851L101.991 62.5327L99.3391 56.9426L88.1587 62.2473L85.5064 56.6572L96.6867 51.3524C98.1696 50.6506 99.8703 50.5658 101.416 51.1166C102.961 51.6674 104.225 52.8087 104.929 54.2902L107.582 59.8804C108.283 61.3632 108.368 63.0639 107.817 64.6092C107.267 66.1545 106.125 67.4182 104.644 68.1229L99.0537 70.7753L101.706 76.3655L112.886 71.0607L115.539 76.6509ZM82.2832 78.7324L71.1028 84.0372C69.62 84.739 67.9193 84.8238 66.374 84.273C64.8287 83.7222 63.565 82.5809 62.8603 81.0994L49.5984 53.1486C48.8966 51.6657 48.8118 49.965 49.3626 48.4197C49.9133 46.8744 51.0547 45.6107 52.5361 44.906L63.7165 39.6012C65.1993 38.8995 66.9 38.8147 68.4453 39.3655C69.9907 39.9162 71.2543 41.0576 71.959 42.539L85.221 70.4899C85.9227 71.9727 86.0075 73.6734 85.4567 75.2187C84.906 76.7641 83.7646 78.0277 82.2832 78.7324ZM55.1885 50.4962L68.4504 78.447L79.6308 73.1423L66.3689 45.1914L55.1885 50.4962ZM59.9225 89.342L43.152 97.2991C41.6691 98.0009 39.9684 98.0857 38.4231 97.5349C36.8778 96.9841 35.6141 95.8428 34.9094 94.3613L21.6475 66.4105C20.9457 64.9276 20.8609 63.2269 21.4117 61.6816C21.9625 60.1363 23.1038 58.8726 24.5853 58.1679L41.3558 50.2108L44.0082 55.801L27.2377 63.7581L40.4996 91.709L57.2701 83.7518L59.9225 89.342Z" fill="#008C36"/>
</g>
<defs>
<clipPath id="clip0_92_101358">
<rect width="99" height="99" fill="white" transform="translate(0 42.4385) rotate(-25.3831)"/>
</clipPath>
</defs>
</svg>
