<svg width="59" height="59" viewBox="0 0 59 59" fill="none" xmlns="http://www.w3.org/2000/svg">
<g clip-path="url(#clip0_92_101364)">
<path d="M51.3925 34.494L43.9532 38.0237L41.6001 33.0642C41.2888 32.4064 41.2512 31.652 41.4955 30.9665C41.7398 30.281 42.2461 29.7205 42.9032 29.4079L45.383 28.2313L44.2064 25.7515L39.2469 28.1047L38.0703 25.6249L43.0299 23.2718C43.6876 22.9605 44.4421 22.9229 45.1275 23.1672C45.813 23.4115 46.3736 23.9178 46.6862 24.575L47.8628 27.0547C48.1741 27.7125 48.2117 28.4669 47.9674 29.1524C47.723 29.8379 47.2167 30.3985 46.5596 30.7111L44.0798 31.8876L45.2564 34.3674L50.2159 32.0142L51.3925 34.494ZM36.6405 35.4174L31.681 37.7705C31.0232 38.0818 30.2688 38.1194 29.5833 37.8751C28.8979 37.6308 28.3373 37.1245 28.0247 36.4674L22.1418 24.0685C21.8305 23.4108 21.7929 22.6563 22.0372 21.9709C22.2815 21.2854 22.7878 20.7248 23.445 20.4122L28.4045 18.0591C29.0623 17.7478 29.8167 17.7101 30.5022 17.9545C31.1877 18.1988 31.7482 18.7051 32.0608 19.3622L37.9437 31.761C38.255 32.4188 38.2926 33.1732 38.0483 33.8587C37.804 34.5442 37.2977 35.1048 36.6405 35.4174ZM24.6216 22.892L30.5044 35.2908L35.464 32.9376L29.5811 20.5388L24.6216 22.892ZM26.7215 40.1237L19.2822 43.6534C18.6244 43.9647 17.87 44.0023 17.1845 43.758C16.499 43.5137 15.9385 43.0074 15.6259 42.3502L9.74299 29.9514C9.43169 29.2937 9.39407 28.5392 9.63839 27.8538C9.88271 27.1683 10.389 26.6077 11.0462 26.2951L18.4854 22.7654L19.662 25.2451L12.2227 28.7749L18.1056 41.1737L25.5449 37.6439L26.7215 40.1237Z" fill="#008C36"/>
</g>
<defs>
<clipPath id="clip0_92_101364">
<rect width="43.9157" height="43.9157" fill="white" transform="translate(0.140625 19.3174) rotate(-25.3831)"/>
</clipPath>
</defs>
</svg>
