<svg width="59" height="59" viewBox="0 0 59 59" fill="none" xmlns="http://www.w3.org/2000/svg">
<g opacity="0.2" clip-path="url(#clip0_92_101366)">
<path d="M51.2519 34.0018L43.8126 37.5316L41.4594 32.572C41.1481 31.9142 41.1105 31.1598 41.3548 30.4743C41.5992 29.7889 42.1055 29.2283 42.7626 28.9157L45.2424 27.7391L44.0658 25.2594L39.1063 27.6125L37.9297 25.1327L42.8892 22.7796C43.547 22.4683 44.3014 22.4307 44.9869 22.675C45.6724 22.9193 46.233 23.4256 46.5456 24.0828L47.7221 26.5625C48.0334 27.2203 48.0711 27.9747 47.8267 28.6602C47.5824 29.3457 47.0761 29.9063 46.419 30.2189L43.9392 31.3955L45.1158 33.8752L50.0753 31.5221L51.2519 34.0018ZM36.4999 34.9252L31.5404 37.2783C30.8826 37.5896 30.1282 37.6273 29.4427 37.3829C28.7572 37.1386 28.1967 36.6323 27.8841 35.9752L22.0012 23.5764C21.6899 22.9186 21.6523 22.1642 21.8966 21.4787C22.1409 20.7932 22.6472 20.2326 23.3043 19.92L28.2639 17.5669C28.9217 17.2556 29.6761 17.218 30.3616 17.4623C31.047 17.7066 31.6076 18.2129 31.9202 18.87L37.8031 31.2689C38.1144 31.9266 38.152 32.6811 37.9077 33.3665C37.6634 34.052 37.1571 34.6126 36.4999 34.9252ZM24.4809 22.3998L30.3638 34.7986L35.3233 32.4454L29.4404 20.0466L24.4809 22.3998ZM26.5809 39.6315L19.1416 43.1612C18.4838 43.4725 17.7294 43.5102 17.0439 43.2658C16.3584 43.0215 15.7979 42.5152 15.4853 41.8581L9.60236 29.4593C9.29106 28.8015 9.25345 28.0471 9.49777 27.3616C9.74209 26.6761 10.2484 26.1155 10.9055 25.8029L18.3448 22.2732L19.5214 24.7529L12.0821 28.2827L17.965 40.6815L25.4043 37.1517L26.5809 39.6315Z" fill="#008C36"/>
</g>
<defs>
<clipPath id="clip0_92_101366">
<rect width="43.9157" height="43.9157" fill="white" transform="translate(0 18.8252) rotate(-25.3831)"/>
</clipPath>
</defs>
</svg>
