<svg width="20" height="20" viewBox="0 0 20 20" fill="none" xmlns="http://www.w3.org/2000/svg">
<path d="M18.125 16.25H14.375V13.75C14.3753 13.4186 14.5071 13.1008 14.7415 12.8665C14.9758 12.6321 15.2936 12.5003 15.625 12.5H16.875V11.25H14.375V10H16.875C17.2064 10.0003 17.5242 10.1321 17.7585 10.3665C17.9929 10.6008 18.1247 10.9186 18.125 11.25V12.5C18.1247 12.8314 17.9929 13.1492 17.7585 13.3835C17.5242 13.6179 17.2064 13.7497 16.875 13.75H15.625V15H18.125V16.25ZM11.875 13.75H9.375C9.04358 13.7497 8.72583 13.6179 8.49148 13.3835C8.25713 13.1492 8.12533 12.8314 8.125 12.5V6.25C8.12533 5.91858 8.25713 5.60083 8.49148 5.36648C8.72583 5.13213 9.04358 5.00033 9.375 5H11.875C12.2064 5.00033 12.5242 5.13213 12.7585 5.36648C12.9929 5.60083 13.1247 5.91858 13.125 6.25V12.5C13.1247 12.8314 12.9929 13.1492 12.7585 13.3835C12.5242 13.6179 12.2064 13.7497 11.875 13.75ZM9.375 6.25V12.5H11.875V6.25H9.375ZM6.875 13.75H3.125C2.79358 13.7497 2.47583 13.6179 2.24148 13.3835C2.00713 13.1492 1.87533 12.8314 1.875 12.5V6.25C1.87533 5.91858 2.00713 5.60083 2.24148 5.36648C2.47583 5.13213 2.79358 5.00033 3.125 5H6.875V6.25H3.125V12.5H6.875V13.75Z" fill="#A4A4A4"/>
</svg>
