<svg width="48" height="46" viewBox="0 0 48 46" fill="none" xmlns="http://www.w3.org/2000/svg">
<path d="M28.638 35.7016C30.5809 35.3157 32.534 34.9272 34.4745 34.5311C35.2715 34.3698 35.8299 34.7273 35.9814 35.4838C36.1181 36.1795 35.7303 36.7453 34.9689 36.8765C33.1628 37.2079 31.3419 37.4784 29.533 37.8426C27.929 38.1677 26.3348 38.5333 24.7701 39.0204C23.7423 39.3343 22.7217 39.6785 21.7012 40.0227C20.0553 40.5724 18.3869 41.074 16.6793 41.4135C15.2878 41.687 13.8774 41.7937 12.4612 41.6122C10.1061 41.3158 8.46775 39.9985 7.36512 37.9294C7.14317 37.5009 7.02521 37.015 6.72474 36.6163C6.68788 36.4644 6.65101 36.3126 6.61415 36.1608C6.62573 35.9436 6.57658 35.7411 6.46669 35.5534C6.41754 35.351 6.36838 35.1485 6.31923 34.9461C6.3431 34.7795 6.30624 34.6276 6.20864 34.4905C6.15457 34.2678 6.09804 34.035 6.04397 33.8123C6.11313 33.3024 6.02553 32.8092 5.90756 32.3233C5.47256 30.5316 5.12866 28.7178 4.78722 26.9141C4.39937 24.8751 4.03423 22.8414 3.70712 20.7876C3.45011 19.1993 3.09188 17.6355 2.78426 16.0594C2.51075 14.668 2.37376 13.2648 2.8632 11.8811C3.34497 10.51 4.39139 9.69856 5.61856 9.0576C6.15102 8.77825 6.71572 8.58756 7.28779 8.42722C9.38896 7.80989 11.5175 7.26096 13.6681 6.80313C15.9224 6.33085 18.1991 5.90673 20.4607 5.46481C21.9154 5.18668 23.3574 4.90089 24.8194 4.65313C27.574 4.16657 30.2743 3.50025 32.9798 2.81124C33.5037 2.67331 34.0178 2.4949 34.5518 2.35453C36.764 1.75311 38.8921 2.74785 39.838 4.83357C40.4652 6.22486 40.8216 7.69264 41.0893 9.19266C41.2036 9.84021 41.4217 10.4733 41.5866 11.1086C42.0889 13.0447 42.5607 14.9883 42.9921 16.9416C43.1442 17.6122 43.276 18.2877 43.4281 18.9582C43.5458 19.487 43.4168 19.8828 43.0567 20.0774C42.6307 20.3095 42.2926 20.2415 41.8709 19.8294C41.553 19.4027 41.5362 18.8923 41.4385 18.4015C41.4016 18.2497 41.4077 18.0981 41.381 17.9438C40.8331 15.2898 40.3055 12.6309 39.6134 10.0012C39.3548 9.02422 39.2176 8.01775 38.9792 7.03586C38.8539 6.51961 38.6678 6.0181 38.4437 5.53655C37.7713 4.09189 36.2222 3.40679 34.698 3.88404C33.2548 4.34162 31.7843 4.7308 30.3113 5.10987C28.7776 5.50367 27.2193 5.79625 25.6709 6.12933C24.0009 6.49189 22.3162 6.79372 20.6365 7.11579C18.557 7.51347 16.4852 7.89856 14.4279 8.38734C13.7371 8.54434 13.019 8.63294 12.338 8.83043C10.5433 9.3412 8.71627 9.76333 6.96114 10.3931C5.60109 10.8841 4.58229 11.721 4.39232 13.2786C4.31737 13.8971 4.37373 14.5265 4.45799 15.1385C4.58533 16.1045 4.83659 17.0511 5.07527 17.99C5.43438 19.425 5.61895 20.8916 5.9072 22.3437C6.12201 23.4493 6.31658 24.5597 6.53385 25.6754C6.94627 27.8156 7.41943 29.941 7.89259 32.0665C8.14268 33.1849 8.25873 34.3251 8.57968 35.4263C8.90309 36.5376 9.37618 37.559 10.283 38.3357C11.4159 39.2934 12.7348 39.6485 14.1904 39.5952C15.5399 39.5463 16.8307 39.2115 18.1067 38.8159C19.722 38.3165 21.2851 37.6905 22.9028 37.2013C24.3003 36.7762 25.6782 36.2702 27.1128 35.954C27.6288 35.8716 28.1082 35.5944 28.638 35.7016Z" fill="#008C36"/>
<path d="M6.47681 35.5508C6.63731 35.7262 6.69658 35.9262 6.62427 36.1581C6.57511 35.9557 6.52596 35.7532 6.47681 35.5508Z" fill="#008C36"/>
<path d="M6.22119 34.498C6.3694 34.6229 6.40627 34.7747 6.33179 34.9536C6.29492 34.8017 6.25806 34.6499 6.22119 34.498Z" fill="#008C36"/>
<path d="M41.4773 17.899C41.5613 18.554 41.7262 19.1892 41.8734 19.8395C40.7166 19.0485 39.5699 18.2549 38.4107 17.4537C36.326 16.0197 34.2312 14.5881 32.1566 13.1516C31.8875 12.9704 31.8262 13.071 31.7336 13.3079C30.5886 16.3622 29.3352 19.3677 27.9634 22.327C26.8994 24.6113 25.7145 26.8392 24.5397 29.0646C24.2607 29.5932 23.9943 30.1296 23.6902 30.6429C23.57 30.8543 23.5971 30.9656 23.783 31.1134C25.5014 32.5399 27.1435 34.0493 28.6506 35.7093C28.1445 35.8322 27.6383 35.9551 27.1322 36.078C26.9733 36.0415 26.8705 35.9271 26.7575 35.8152C25.3797 34.4668 23.8871 33.2642 22.3029 32.1695C21.116 31.3429 19.9086 30.5641 18.6705 29.8357C17.8476 29.3601 17.0271 28.8947 16.199 28.4419C15.975 28.3141 15.8861 28.3893 15.7837 28.5856C15.3613 29.4064 14.9489 30.2247 14.451 30.9995C14.2492 31.3164 14.0223 31.6181 13.7954 31.9197C13.5048 32.3118 13.1732 32.4031 12.813 32.244C12.4251 32.0594 12.2732 31.7426 12.3825 31.2658C12.747 29.6766 13.3107 28.157 13.8995 26.6527C13.9868 26.4386 14.0616 26.2167 14.1591 26.0001C14.5517 25.1008 15.3266 24.8484 16.1618 25.3745C16.8485 25.8188 17.5198 26.2882 18.1912 26.7577C19.456 27.6404 20.7132 28.5358 21.932 29.494C22.1305 29.6495 22.2143 29.597 22.2915 29.3853C23.0711 26.945 24.1581 24.623 25.2476 22.3111C25.9909 20.7371 26.7972 19.2014 27.601 17.6556C28.5995 15.7196 29.5729 13.7682 30.448 11.7656C30.5636 11.491 30.6917 11.224 30.9607 11.0515C31.4174 10.7691 31.915 10.7877 32.3396 11.1241C34.7398 12.9746 37.2164 14.7423 39.6828 16.5124C40.163 16.8568 40.6482 17.2214 41.1437 17.5405C41.2744 17.6374 41.3696 17.7644 41.4773 17.899Z" fill="#FFAB2E"/>
<path d="M39.8868 26.2715C40.0846 26.9095 40.2551 27.4791 40.4356 28.0463C41.1235 30.1732 41.7811 32.3075 42.2159 34.4958C42.3502 35.1814 42.444 35.8768 42.3811 36.5889C42.3484 36.9398 42.3279 37.3414 41.9129 37.4421C41.5181 37.538 41.1962 37.316 40.9483 37.001C40.1743 36.0206 39.8005 34.8786 39.6673 33.6675C39.4051 31.3515 39.2871 29.0111 38.5799 26.7603C38.4315 26.2818 38.4189 26.2741 38.0126 26.5872C37.4615 27.0104 37.1466 27.6121 36.7689 28.1754C36.312 28.8545 35.9055 29.5642 35.4738 30.2586C35.2438 30.636 34.9779 30.7327 34.6708 30.5714C34.3737 30.4077 34.3197 30.185 34.4867 29.7693C35.0341 28.4037 35.6193 27.061 36.5242 25.8873C37.6814 24.3844 39.074 23.9391 40.8535 24.5575C42.4213 25.0987 43.7564 26.0502 45.043 27.067C45.5331 27.4518 45.5511 28.1442 45.1687 28.6444C44.7787 29.1571 44.083 29.2939 43.5828 28.9115C42.781 28.3022 42.0175 27.63 41.2234 27.0082C40.8591 26.7 40.4618 26.432 39.8868 26.2715Z" fill="#FFAB2E"/>
<path d="M41.4772 17.8988C40.0516 16.8836 38.6082 15.8834 37.2004 14.8531C35.5587 13.6545 33.9349 12.4409 32.3135 11.2373C31.6197 10.7198 30.8933 10.9068 30.5418 11.7104C29.9437 13.0883 29.2978 14.4457 28.6191 15.8003C27.4281 18.1797 26.1641 20.5233 25.0335 22.9309C24.0029 25.132 22.995 27.3384 22.2743 29.6679C22.2639 29.7133 22.2332 29.7636 22.1949 29.8265C21.5011 29.309 20.8098 28.8015 20.1261 28.2814C18.8039 27.2947 17.4434 26.3709 16.0727 25.4495C15.3308 24.9543 14.5839 25.1892 14.2372 26.013C13.5282 27.7288 12.9024 29.4779 12.438 31.2736C12.3237 31.7301 12.4781 32.057 12.8638 32.1885C13.2721 32.3252 13.5162 32.0944 13.7431 31.7928C14.5183 30.747 15.1299 29.6017 15.7038 28.4333C15.8114 28.2142 15.8724 28.1565 16.1191 28.2896C18.5203 29.6146 20.8833 31.0025 23.0981 32.6194C24.5209 33.6674 25.8929 34.7707 27.1069 36.0624C25.1256 36.5113 23.2211 37.1881 21.3093 37.8345C19.4937 38.4361 17.7101 39.1693 15.8153 39.5328C14.4947 39.7891 13.1603 39.8558 11.8597 39.3998C10.3122 38.8537 9.29119 37.7831 8.72038 36.2709C8.23647 34.9842 7.97771 33.6535 7.82017 32.2982C7.7891 32.0378 7.71754 31.7872 7.64597 31.5366C7.1167 29.4891 6.72915 27.4071 6.32135 25.3301C5.95475 23.5111 5.60839 21.6872 5.3151 19.8611C5.1162 18.6445 4.75289 17.4571 4.5135 16.2503C4.34263 15.37 4.19446 14.4948 4.22084 13.588C4.26939 12.0219 5.14489 11.0804 6.46042 10.4502C7.30697 10.0517 8.218 9.8305 9.12166 9.57894C10.5999 9.17718 12.0658 8.7248 13.5661 8.41414C15.7394 7.96152 17.9127 7.5089 20.0783 7.06886C21.7127 6.73637 23.3621 6.42167 25.0014 6.10943C27.0732 5.72433 29.1177 5.27083 31.1575 4.75414C32.2989 4.46631 33.443 4.14565 34.5672 3.78695C36.3853 3.19549 38.1198 4.11428 38.744 5.93506C39.252 7.40892 39.4007 8.94855 39.815 10.4344C40.3676 12.4012 40.7456 14.3997 41.1767 16.396C41.2995 16.9022 41.377 17.3979 41.4772 17.8988Z" fill="#F9F9F9"/>
<path d="M9.62399 17.4757C9.24101 16.2074 9.35533 15.0005 10.2265 13.9529C11.9535 11.8828 15.1455 12.094 16.6385 14.3577C17.4362 15.5683 17.8189 16.8796 17.2963 18.3035C16.47 20.5515 13.6229 21.6286 11.5567 20.4474C10.6482 19.9283 10.1132 19.0935 9.78894 18.111C9.71955 17.9135 9.67806 17.6984 9.62399 17.4757Z" fill="#008C36"/>
<path d="M10.9808 17.4567C10.5131 16.0159 11.5316 15.222 12.6399 14.9743C14.0494 14.6428 15.6407 15.8108 15.6945 17.1805C15.7237 18.0953 14.9611 19.1487 14.0369 19.4481C13.0241 19.7798 12.0236 19.4117 11.3983 18.4701C11.1933 18.1554 11.034 17.8082 10.9808 17.4567Z" fill="#F9F9F9"/>
</svg>
