<svg width="20" height="20" viewBox="0 0 20 20" fill="none" xmlns="http://www.w3.org/2000/svg">
<path d="M18.3928 16.1969L18.3974 16.1943L16.9404 13.6709H17.5138V13.6683C17.6334 13.6683 17.7304 13.5715 17.7304 13.4519C17.7304 13.4149 17.7186 13.3817 17.7024 13.3513L17.7062 13.3491L16.3588 11.0153H16.6866V11.0135C16.7276 11.0135 16.7669 10.9972 16.7959 10.9683C16.8249 10.9393 16.8412 10.9 16.8412 10.8591C16.8407 10.8338 16.8338 10.8092 16.8212 10.7873L16.8238 10.7857L14.8634 7.38986L14.8614 7.39106C14.8401 7.34617 14.8065 7.30821 14.7645 7.28153C14.7226 7.25486 14.674 7.24055 14.6242 7.24026C14.5194 7.24026 14.4306 7.30246 14.3872 7.39066L14.3862 7.39006L12.4258 10.7857L12.4262 10.7859C12.4131 10.808 12.4058 10.8333 12.4052 10.8591C12.4052 10.9443 12.4744 11.0135 12.5598 11.0135V11.0153H12.892L11.5446 13.3491L11.5452 13.3493C11.5269 13.3804 11.5167 13.4157 11.5158 13.4519C11.5158 13.5715 11.6128 13.6683 11.7324 13.6683V13.6709H12.3112L11.8912 14.3985L10.2114 11.4889H11.0206V11.4853C11.1894 11.4853 11.3262 11.3483 11.3262 11.1797C11.3262 11.1277 11.312 11.0793 11.289 11.0363L11.292 11.0345L9.39064 7.74106H9.85324V7.73866C9.88192 7.73869 9.91032 7.73306 9.93682 7.72209C9.96332 7.71112 9.98739 7.69503 10.0077 7.67474C10.0279 7.65445 10.044 7.63036 10.0549 7.60386C10.0659 7.57735 10.0715 7.54894 10.0714 7.52026C10.0714 7.48306 10.0596 7.44966 10.0432 7.41906L10.047 7.41686L7.28024 2.62546L7.27924 2.62606C7.2487 2.56268 7.20094 2.50918 7.14141 2.47169C7.08188 2.4342 7.01299 2.41423 6.94264 2.41406C6.79104 2.41406 6.66104 2.50446 6.60184 2.63406L3.84044 7.41686L3.84104 7.41726C3.82248 7.44855 3.81229 7.48409 3.81144 7.52046C3.81139 7.54912 3.81699 7.57752 3.82792 7.60401C3.83885 7.63051 3.8549 7.65458 3.87515 7.67487C3.8954 7.69516 3.91945 7.71125 3.94592 7.72223C3.9724 7.73321 4.00078 7.73886 4.02944 7.73886V7.74126H4.49844L2.61944 10.9957C2.57874 11.0484 2.55653 11.1131 2.55624 11.1797C2.55624 11.3485 2.69324 11.4853 2.86184 11.4853V11.4889H3.67864L1.65064 15.0019C1.60264 15.0647 1.57324 15.1423 1.57324 15.2275C1.57324 15.4339 1.74084 15.6015 1.94744 15.6015V15.6057H5.90324V17.2917C5.90324 17.4547 6.03544 17.5871 6.19844 17.5871H7.67504C7.83804 17.5871 7.97044 17.4549 7.97044 17.2917V15.6057H11.1944L10.8546 16.1943L10.8552 16.1947C10.8344 16.2325 10.8192 16.2739 10.8192 16.3203C10.8192 16.4667 10.9378 16.5853 11.0842 16.5853V16.5883H13.8874V17.3765C13.8874 17.4921 13.9812 17.5857 14.0966 17.5857H15.143C15.2586 17.5857 15.3522 17.4921 15.3522 17.3765V16.5883H18.1622V16.5853C18.3086 16.5853 18.4274 16.4667 18.4274 16.3203C18.4264 16.2769 18.4145 16.2344 18.3928 16.1969Z" fill="#A4A4A4"/>
</svg>
