<svg width="191" height="48" viewBox="0 0 191 48" fill="none" xmlns="http://www.w3.org/2000/svg">
<path d="M36.726 16.256C36.726 14.7307 37.056 13.374 37.716 12.186C38.376 10.9833 39.2927 10.052 40.466 9.392C41.654 8.71733 42.996 8.38 44.492 8.38C46.3253 8.38 47.8947 8.864 49.2 9.832C50.5053 10.8 51.378 12.12 51.818 13.792H47.682C47.374 13.1467 46.934 12.6553 46.362 12.318C45.8047 11.9807 45.1667 11.812 44.448 11.812C43.2893 11.812 42.3507 12.2153 41.632 13.022C40.9133 13.8287 40.554 14.9067 40.554 16.256C40.554 17.6053 40.9133 18.6833 41.632 19.49C42.3507 20.2967 43.2893 20.7 44.448 20.7C45.1667 20.7 45.8047 20.5313 46.362 20.194C46.934 19.8567 47.374 19.3653 47.682 18.72H51.818C51.378 20.392 50.5053 21.712 49.2 22.68C47.8947 23.6333 46.3253 24.11 44.492 24.11C42.996 24.11 41.654 23.78 40.466 23.12C39.2927 22.4453 38.376 21.514 37.716 20.326C37.056 19.138 36.726 17.7813 36.726 16.256ZM53.5938 17.84C53.5938 16.5787 53.8285 15.4713 54.2978 14.518C54.7818 13.5647 55.4345 12.8313 56.2558 12.318C57.0771 11.8047 57.9938 11.548 59.0058 11.548C59.8711 11.548 60.6265 11.724 61.2718 12.076C61.9318 12.428 62.4378 12.89 62.7898 13.462V11.724H66.5518V24H62.7898V22.262C62.4231 22.834 61.9098 23.296 61.2498 23.648C60.6045 24 59.8491 24.176 58.9838 24.176C57.9865 24.176 57.0771 23.9193 56.2558 23.406C55.4345 22.878 54.7818 22.1373 54.2978 21.184C53.8285 20.216 53.5938 19.1013 53.5938 17.84ZM62.7898 17.862C62.7898 16.9233 62.5258 16.1827 61.9978 15.64C61.4845 15.0973 60.8538 14.826 60.1058 14.826C59.3578 14.826 58.7198 15.0973 58.1918 15.64C57.6785 16.168 57.4218 16.9013 57.4218 17.84C57.4218 18.7787 57.6785 19.5267 58.1918 20.084C58.7198 20.6267 59.3578 20.898 60.1058 20.898C60.8538 20.898 61.4845 20.6267 61.9978 20.084C62.5258 19.5413 62.7898 18.8007 62.7898 17.862ZM73.2555 13.77C73.6955 13.0953 74.2455 12.5673 74.9055 12.186C75.5655 11.79 76.2988 11.592 77.1055 11.592V15.574H76.0715C75.1328 15.574 74.4288 15.7793 73.9595 16.19C73.4901 16.586 73.2555 17.29 73.2555 18.302V24H69.4935V11.724H73.2555V13.77ZM82.8856 13.462C83.2376 12.89 83.7436 12.428 84.4036 12.076C85.0636 11.724 85.8189 11.548 86.6696 11.548C87.6816 11.548 88.5983 11.8047 89.4196 12.318C90.2409 12.8313 90.8863 13.5647 91.3556 14.518C91.8396 15.4713 92.0816 16.5787 92.0816 17.84C92.0816 19.1013 91.8396 20.216 91.3556 21.184C90.8863 22.1373 90.2409 22.878 89.4196 23.406C88.5983 23.9193 87.6816 24.176 86.6696 24.176C85.8043 24.176 85.0489 24.0073 84.4036 23.67C83.7583 23.318 83.2523 22.856 82.8856 22.284V24H79.1236V7.72H82.8856V13.462ZM88.2536 17.84C88.2536 16.9013 87.9896 16.168 87.4616 15.64C86.9483 15.0973 86.3103 14.826 85.5476 14.826C84.7996 14.826 84.1616 15.0973 83.6336 15.64C83.1203 16.1827 82.8636 16.9233 82.8636 17.862C82.8636 18.8007 83.1203 19.5413 83.6336 20.084C84.1616 20.6267 84.7996 20.898 85.5476 20.898C86.2956 20.898 86.9336 20.6267 87.4616 20.084C87.9896 19.5267 88.2536 18.7787 88.2536 17.84ZM99.8633 24.176C98.6606 24.176 97.5753 23.9193 96.6073 23.406C95.6539 22.8927 94.8986 22.1593 94.3413 21.206C93.7986 20.2527 93.5273 19.138 93.5273 17.862C93.5273 16.6007 93.8059 15.4933 94.3633 14.54C94.9206 13.572 95.6833 12.8313 96.6513 12.318C97.6193 11.8047 98.7046 11.548 99.9073 11.548C101.11 11.548 102.195 11.8047 103.163 12.318C104.131 12.8313 104.894 13.572 105.451 14.54C106.009 15.4933 106.287 16.6007 106.287 17.862C106.287 19.1233 106.001 20.238 105.429 21.206C104.872 22.1593 104.102 22.8927 103.119 23.406C102.151 23.9193 101.066 24.176 99.8633 24.176ZM99.8633 20.92C100.582 20.92 101.191 20.656 101.689 20.128C102.203 19.6 102.459 18.8447 102.459 17.862C102.459 16.8793 102.21 16.124 101.711 15.596C101.227 15.068 100.626 14.804 99.9073 14.804C99.1739 14.804 98.5653 15.068 98.0813 15.596C97.5973 16.1093 97.3553 16.8647 97.3553 17.862C97.3553 18.8447 97.5899 19.6 98.0593 20.128C98.5433 20.656 99.1446 20.92 99.8633 20.92ZM115.983 11.592C117.42 11.592 118.564 12.0613 119.415 13C120.28 13.924 120.713 15.2 120.713 16.828V24H116.973V17.334C116.973 16.5127 116.76 15.8747 116.335 15.42C115.91 14.9653 115.338 14.738 114.619 14.738C113.9 14.738 113.328 14.9653 112.903 15.42C112.478 15.8747 112.265 16.5127 112.265 17.334V24H108.503V11.724H112.265V13.352C112.646 12.8093 113.16 12.384 113.805 12.076C114.45 11.7533 115.176 11.592 115.983 11.592ZM123.129 16.322C123.129 14.826 123.467 13.484 124.141 12.296C124.816 11.0933 125.733 10.1547 126.891 9.48C128.065 8.80533 129.363 8.468 130.785 8.468C132.457 8.468 133.917 8.87133 135.163 9.678C136.41 10.4847 137.319 11.6287 137.891 13.11H135.493C135.068 12.186 134.452 11.4747 133.645 10.976C132.853 10.4773 131.9 10.228 130.785 10.228C129.715 10.228 128.754 10.4773 127.903 10.976C127.053 11.4747 126.385 12.186 125.901 13.11C125.417 14.0193 125.175 15.09 125.175 16.322C125.175 17.5393 125.417 18.61 125.901 19.534C126.385 20.4433 127.053 21.1473 127.903 21.646C128.754 22.1447 129.715 22.394 130.785 22.394C131.9 22.394 132.853 22.152 133.645 21.668C134.452 21.1693 135.068 20.458 135.493 19.534H137.891C137.319 21.0007 136.41 22.1373 135.163 22.944C133.917 23.736 132.457 24.132 130.785 24.132C129.363 24.132 128.065 23.802 126.891 23.142C125.733 22.4673 124.816 21.536 124.141 20.348C123.467 19.16 123.129 17.818 123.129 16.322ZM143.093 13.902C143.445 13.2127 143.944 12.6773 144.589 12.296C145.249 11.9147 146.049 11.724 146.987 11.724V13.792H146.459C144.215 13.792 143.093 15.0093 143.093 17.444V24H141.091V11.944H143.093V13.902ZM160.518 17.51C160.518 17.8913 160.496 18.2947 160.452 18.72H150.816C150.89 19.908 151.293 20.8393 152.026 21.514C152.774 22.174 153.676 22.504 154.732 22.504C155.598 22.504 156.316 22.306 156.888 21.91C157.475 21.4993 157.886 20.9567 158.12 20.282H160.276C159.954 21.4407 159.308 22.3867 158.34 23.12C157.372 23.8387 156.17 24.198 154.732 24.198C153.588 24.198 152.562 23.9413 151.652 23.428C150.758 22.9147 150.054 22.1887 149.54 21.25C149.027 20.2967 148.77 19.1967 148.77 17.95C148.77 16.7033 149.02 15.6107 149.518 14.672C150.017 13.7333 150.714 13.0147 151.608 12.516C152.518 12.0027 153.559 11.746 154.732 11.746C155.876 11.746 156.888 11.9953 157.768 12.494C158.648 12.9927 159.323 13.682 159.792 14.562C160.276 15.4273 160.518 16.41 160.518 17.51ZM158.45 17.092C158.45 16.3293 158.282 15.6767 157.944 15.134C157.607 14.5767 157.145 14.1587 156.558 13.88C155.986 13.5867 155.348 13.44 154.644 13.44C153.632 13.44 152.767 13.7627 152.048 14.408C151.344 15.0533 150.941 15.948 150.838 17.092H158.45ZM162.633 17.928C162.633 16.696 162.882 15.618 163.381 14.694C163.88 13.7553 164.562 13.0293 165.427 12.516C166.307 12.0027 167.29 11.746 168.375 11.746C169.314 11.746 170.186 11.966 170.993 12.406C171.8 12.8313 172.416 13.396 172.841 14.1V7.72H174.865V24H172.841V21.734C172.445 22.4527 171.858 23.0467 171.081 23.516C170.304 23.9707 169.394 24.198 168.353 24.198C167.282 24.198 166.307 23.934 165.427 23.406C164.562 22.878 163.88 22.1373 163.381 21.184C162.882 20.2307 162.633 19.1453 162.633 17.928ZM172.841 17.95C172.841 17.0407 172.658 16.2487 172.291 15.574C171.924 14.8993 171.426 14.386 170.795 14.034C170.179 13.6673 169.497 13.484 168.749 13.484C168.001 13.484 167.319 13.66 166.703 14.012C166.087 14.364 165.596 14.8773 165.229 15.552C164.862 16.2267 164.679 17.0187 164.679 17.928C164.679 18.852 164.862 19.6587 165.229 20.348C165.596 21.0227 166.087 21.5433 166.703 21.91C167.319 22.262 168.001 22.438 168.749 22.438C169.497 22.438 170.179 22.262 170.795 21.91C171.426 21.5433 171.924 21.0227 172.291 20.348C172.658 19.6587 172.841 18.8593 172.841 17.95ZM179.502 9.986C179.121 9.986 178.798 9.854 178.534 9.59C178.27 9.326 178.138 9.00333 178.138 8.622C178.138 8.24067 178.27 7.918 178.534 7.654C178.798 7.39 179.121 7.258 179.502 7.258C179.869 7.258 180.177 7.39 180.426 7.654C180.69 7.918 180.822 8.24067 180.822 8.622C180.822 9.00333 180.69 9.326 180.426 9.59C180.177 9.854 179.869 9.986 179.502 9.986ZM180.47 11.944V24H178.468V11.944H180.47ZM186.544 13.594V20.7C186.544 21.2867 186.669 21.7047 186.918 21.954C187.168 22.1887 187.6 22.306 188.216 22.306H189.69V24H187.886C186.772 24 185.936 23.7433 185.378 23.23C184.821 22.7167 184.542 21.8733 184.542 20.7V13.594H182.98V11.944H184.542V8.908H186.544V11.944H189.69V13.594H186.544Z" fill="#010603"/>
<path d="M145.584 44H139.152V32.544H140.624V42.592H145.584V44ZM148.769 33.456C148.769 33.744 148.667 33.9893 148.465 34.192C148.262 34.3947 148.017 34.496 147.729 34.496C147.441 34.496 147.195 34.3947 146.993 34.192C146.79 33.9893 146.689 33.744 146.689 33.456C146.689 33.168 146.79 32.9227 146.993 32.72C147.195 32.5173 147.441 32.416 147.729 32.416C148.017 32.416 148.262 32.5173 148.465 32.72C148.667 32.9227 148.769 33.168 148.769 33.456ZM148.465 36.16V44H146.993V36.16H148.465ZM156.38 41.824C156.38 42.5067 156.082 43.0827 155.484 43.552C154.887 44.0213 154.135 44.256 153.228 44.256C152.439 44.256 151.746 44.0533 151.148 43.648C150.551 43.232 150.124 42.688 149.868 42.016L151.18 41.456C151.372 41.9253 151.65 42.2933 152.012 42.56C152.386 42.816 152.791 42.944 153.228 42.944C153.698 42.944 154.087 42.8427 154.396 42.64C154.716 42.4373 154.876 42.1973 154.876 41.92C154.876 41.4187 154.492 41.0507 153.724 40.816L152.38 40.48C150.855 40.096 150.092 39.36 150.092 38.272C150.092 37.5573 150.38 36.9867 150.956 36.56C151.543 36.1227 152.29 35.904 153.196 35.904C153.89 35.904 154.514 36.0693 155.068 36.4C155.634 36.7307 156.028 37.1733 156.252 37.728L154.94 38.272C154.791 37.9413 154.546 37.6853 154.204 37.504C153.874 37.312 153.5 37.216 153.084 37.216C152.7 37.216 152.354 37.312 152.044 37.504C151.746 37.696 151.596 37.9307 151.596 38.208C151.596 38.656 152.018 38.976 152.86 39.168L154.044 39.472C155.602 39.856 156.38 40.64 156.38 41.824ZM160.688 44.128C160.048 44.128 159.514 43.9307 159.088 43.536C158.672 43.1413 158.458 42.592 158.448 41.888V37.504H157.072V36.16H158.448V33.76H159.92V36.16H161.84V37.504H159.92V41.408C159.92 41.9307 160.021 42.288 160.224 42.48C160.426 42.6613 160.656 42.752 160.911 42.752C161.029 42.752 161.141 42.7413 161.248 42.72C161.365 42.688 161.472 42.6507 161.568 42.608L162.032 43.92C161.648 44.0587 161.2 44.128 160.688 44.128ZM165.222 33.456C165.222 33.744 165.121 33.9893 164.918 34.192C164.715 34.3947 164.47 34.496 164.182 34.496C163.894 34.496 163.649 34.3947 163.446 34.192C163.243 33.9893 163.142 33.744 163.142 33.456C163.142 33.168 163.243 32.9227 163.446 32.72C163.649 32.5173 163.894 32.416 164.182 32.416C164.47 32.416 164.715 32.5173 164.918 32.72C165.121 32.9227 165.222 33.168 165.222 33.456ZM164.918 36.16V44H163.446V36.16H164.918ZM166.834 36.16H168.242V37.248H168.306C168.53 36.864 168.871 36.544 169.33 36.288C169.799 36.032 170.284 35.904 170.786 35.904C171.746 35.904 172.482 36.1813 172.994 36.736C173.516 37.28 173.778 38.0587 173.778 39.072V44H172.306V39.168C172.274 37.888 171.628 37.248 170.37 37.248C169.783 37.248 169.292 37.488 168.898 37.968C168.503 38.4373 168.306 39.0027 168.306 39.664V44H166.834V36.16ZM178.947 42.912C179.673 42.912 180.265 42.6507 180.723 42.128C181.203 41.6053 181.443 40.9227 181.443 40.08C181.443 39.2587 181.203 38.5813 180.723 38.048C180.254 37.5147 179.662 37.248 178.947 37.248C178.243 37.248 177.651 37.5147 177.171 38.048C176.691 38.5813 176.451 39.2587 176.451 40.08C176.451 40.912 176.691 41.5893 177.171 42.112C177.651 42.6453 178.243 42.912 178.947 42.912ZM178.899 47.712C178.462 47.712 178.051 47.6533 177.667 47.536C177.283 47.4293 176.931 47.2747 176.611 47.072C176.302 46.8693 176.035 46.6293 175.811 46.352C175.587 46.0747 175.417 45.7653 175.299 45.424L176.691 44.848C176.851 45.3067 177.129 45.6747 177.523 45.952C177.918 46.2293 178.377 46.368 178.899 46.368C179.699 46.368 180.323 46.128 180.771 45.648C181.219 45.168 181.443 44.5067 181.443 43.664V42.912H181.379C181.102 43.328 180.723 43.6587 180.243 43.904C179.774 44.1387 179.262 44.256 178.707 44.256C177.683 44.256 176.803 43.856 176.067 43.056C175.342 42.2347 174.979 41.2427 174.979 40.08C174.979 38.9173 175.342 37.9307 176.067 37.12C176.803 36.3093 177.683 35.904 178.707 35.904C179.262 35.904 179.774 36.0267 180.243 36.272C180.723 36.5067 181.102 36.832 181.379 37.248H181.443V36.16H182.851V43.664C182.851 44.9227 182.494 45.9093 181.779 46.624C181.054 47.3493 180.094 47.712 178.899 47.712ZM190.568 41.824C190.568 42.5067 190.269 43.0827 189.672 43.552C189.075 44.0213 188.323 44.256 187.416 44.256C186.627 44.256 185.933 44.0533 185.336 43.648C184.739 43.232 184.312 42.688 184.056 42.016L185.368 41.456C185.56 41.9253 185.837 42.2933 186.2 42.56C186.573 42.816 186.979 42.944 187.416 42.944C187.885 42.944 188.275 42.8427 188.584 42.64C188.904 42.4373 189.064 42.1973 189.064 41.92C189.064 41.4187 188.68 41.0507 187.912 40.816L186.568 40.48C185.043 40.096 184.28 39.36 184.28 38.272C184.28 37.5573 184.568 36.9867 185.144 36.56C185.731 36.1227 186.477 35.904 187.384 35.904C188.077 35.904 188.701 36.0693 189.256 36.4C189.821 36.7307 190.216 37.1733 190.44 37.728L189.128 38.272C188.979 37.9413 188.733 37.6853 188.392 37.504C188.061 37.312 187.688 37.216 187.272 37.216C186.888 37.216 186.541 37.312 186.232 37.504C185.933 37.696 185.784 37.9307 185.784 38.208C185.784 38.656 186.205 38.976 187.048 39.168L188.232 39.472C189.789 39.856 190.568 40.64 190.568 41.824Z" fill="#010603"/>
<path d="M27.0187 22.4155C28.6076 23.3387 29.1694 25.4059 27.9387 26.7705C26.3288 28.5554 24.3282 29.9665 22.0756 30.8831C18.7887 32.2206 15.1508 32.4298 11.7322 31.478C8.3136 30.5261 5.30739 28.4669 3.18466 25.6232C1.06194 22.7794 -0.0573268 19.3117 0.0022604 15.7635C0.0618476 12.2154 1.29692 8.78724 3.51394 6.01635C5.73095 3.24545 8.80462 1.28839 12.2533 0.451846C15.7019 -0.384699 19.3307 -0.0534509 22.5709 1.39368C24.7914 2.38544 26.7435 3.86288 28.2925 5.70085C29.4767 7.10595 28.8458 9.15322 27.2269 10.0225C25.6079 10.8917 23.6173 10.2185 22.2398 9.00233C21.5325 8.37786 20.7304 7.85954 19.8572 7.46958C17.9619 6.62307 15.8392 6.42931 13.8219 6.91865C11.8046 7.40799 10.0067 8.55278 8.70983 10.1736C7.41298 11.7945 6.69052 13.7998 6.65566 15.8753C6.62081 17.9508 7.27553 19.9792 8.51722 21.6427C9.75891 23.3062 11.5174 24.5107 13.5171 25.0675C15.5169 25.6243 17.6448 25.5019 19.5675 24.7195C20.4533 24.3591 21.2724 23.868 22.0003 23.2676C23.4178 22.0984 25.4299 21.4924 27.0187 22.4155Z" fill="#008C36"/>
<path d="M20.6813 19.1128C21.6533 19.6776 21.9986 20.9514 21.1913 21.7339C20.5136 22.3909 19.712 22.9167 18.8261 23.2772C17.3066 23.8956 15.6248 23.9923 14.0444 23.5522C12.464 23.1122 11.0742 22.1602 10.0929 20.8456C9.11154 19.5309 8.5941 17.9278 8.62165 16.2875C8.6492 14.6472 9.22017 13.0623 10.2451 11.7814C11.27 10.5004 12.691 9.59562 14.2853 9.20889C15.8796 8.82215 17.5571 8.97529 19.0551 9.6443C19.9284 10.0343 20.7118 10.5868 21.3671 11.2662C22.1476 12.0753 21.7598 13.3369 20.7693 13.8687C19.7789 14.4005 18.5448 13.9393 17.5418 13.4315C17.4935 13.407 17.4445 13.3837 17.3949 13.3615C16.7197 13.0599 15.9636 12.9909 15.245 13.1652C14.5264 13.3396 13.8859 13.7474 13.4239 14.3247C12.9619 14.9021 12.7046 15.6165 12.6922 16.3558C12.6797 17.0952 12.913 17.8178 13.3553 18.4103C13.7976 19.0029 14.424 19.432 15.1364 19.6303C15.8488 19.8287 16.6068 19.7851 17.2917 19.5064C17.3421 19.4859 17.3918 19.4642 17.4409 19.4414C18.4603 18.9675 19.7092 18.5481 20.6813 19.1128Z" fill="#16C098"/>
</svg>
