<svg width="181" height="55" viewBox="0 0 181 55" fill="none" xmlns="http://www.w3.org/2000/svg">
<path d="M34.808 16.644C34.808 15.233 35.1133 13.9781 35.7238 12.8791C36.3343 11.7666 37.1823 10.9051 38.2676 10.2946C39.3666 9.67052 40.608 9.35848 41.9918 9.35848C43.6877 9.35848 45.1393 9.80619 46.3468 10.7016C47.5543 11.597 48.3615 12.8181 48.7685 14.3647H44.9426C44.6577 13.7678 44.2507 13.3133 43.7216 13.0012C43.206 12.6892 42.6159 12.5332 41.9511 12.5332C40.8793 12.5332 40.011 12.9063 39.3462 13.6524C38.6814 14.3986 38.349 15.3958 38.349 16.644C38.349 17.8921 38.6814 18.8893 39.3462 19.6355C40.011 20.3817 40.8793 20.7548 41.9511 20.7548C42.6159 20.7548 43.206 20.5988 43.7216 20.2867C44.2507 19.9747 44.6577 19.5202 44.9426 18.9232H48.7685C48.3615 20.4699 47.5543 21.6909 46.3468 22.5863C45.1393 23.4682 43.6877 23.9091 41.9918 23.9091C40.608 23.9091 39.3666 23.6039 38.2676 22.9934C37.1823 22.3693 36.3343 21.5078 35.7238 20.4088C35.1133 19.3099 34.808 18.055 34.808 16.644ZM50.4112 18.1092C50.4112 16.9425 50.6283 15.9181 51.0624 15.0363C51.5101 14.1544 52.1139 13.4761 52.8736 13.0012C53.6334 12.5264 54.4813 12.289 55.4174 12.289C56.2179 12.289 56.9166 12.4518 57.5135 12.7774C58.1241 13.103 58.5921 13.5303 58.9177 14.0595V12.4518H62.3977V23.8074H58.9177V22.1997C58.5785 22.7288 58.1037 23.1562 57.4932 23.4818C56.8962 23.8074 56.1975 23.9702 55.3971 23.9702C54.4745 23.9702 53.6334 23.7328 52.8736 23.2579C52.1139 22.7695 51.5101 22.0844 51.0624 21.2025C50.6283 20.3071 50.4112 19.276 50.4112 18.1092ZM58.9177 18.1296C58.9177 17.2613 58.6735 16.5761 58.1851 16.0742C57.7103 15.5722 57.1269 15.3212 56.435 15.3212C55.743 15.3212 55.1529 15.5722 54.6645 16.0742C54.1896 16.5626 53.9522 17.2409 53.9522 18.1092C53.9522 18.9775 54.1896 19.6694 54.6645 20.185C55.1529 20.687 55.743 20.9379 56.435 20.9379C57.1269 20.9379 57.7103 20.687 58.1851 20.185C58.6735 19.683 58.9177 18.9979 58.9177 18.1296ZM68.5987 14.3444C69.0057 13.7203 69.5145 13.2319 70.125 12.8791C70.7355 12.5128 71.4139 12.3297 72.1601 12.3297V16.0131H71.2036C70.3353 16.0131 69.6841 16.203 69.2499 16.5829C68.8158 16.9492 68.5987 17.6005 68.5987 18.5366V23.8074H65.1188V12.4518H68.5987V14.3444ZM77.5068 14.0595C77.8324 13.5303 78.3005 13.103 78.911 12.7774C79.5215 12.4518 80.2202 12.289 81.0071 12.289C81.9433 12.289 82.7912 12.5264 83.551 13.0012C84.3107 13.4761 84.9077 14.1544 85.3418 15.0363C85.7895 15.9181 86.0134 16.9425 86.0134 18.1092C86.0134 19.276 85.7895 20.3071 85.3418 21.2025C84.9077 22.0844 84.3107 22.7695 83.551 23.2579C82.7912 23.7328 81.9433 23.9702 81.0071 23.9702C80.2067 23.9702 79.508 23.8142 78.911 23.5021C78.3141 23.1765 77.846 22.7491 77.5068 22.22V23.8074H74.0269V8.74796H77.5068V14.0595ZM82.4724 18.1092C82.4724 17.2409 82.2282 16.5626 81.7398 16.0742C81.2649 15.5722 80.6747 15.3212 79.9693 15.3212C79.2773 15.3212 78.6872 15.5722 78.1988 16.0742C77.7239 16.5761 77.4865 17.2613 77.4865 18.1296C77.4865 18.9979 77.7239 19.683 78.1988 20.185C78.6872 20.687 79.2773 20.9379 79.9693 20.9379C80.6612 20.9379 81.2513 20.687 81.7398 20.185C82.2282 19.6694 82.4724 18.9775 82.4724 18.1092ZM93.2116 23.9702C92.0991 23.9702 91.0951 23.7328 90.1997 23.2579C89.3178 22.7831 88.6191 22.1047 88.1036 21.2229C87.6016 20.341 87.3506 19.3099 87.3506 18.1296C87.3506 16.9628 87.6084 15.9385 88.1239 15.0566C88.6395 14.1612 89.345 13.4761 90.2404 13.0012C91.1358 12.5264 92.1398 12.289 93.2523 12.289C94.3648 12.289 95.3687 12.5264 96.2642 13.0012C97.1596 13.4761 97.8651 14.1612 98.3806 15.0566C98.8962 15.9385 99.1539 16.9628 99.1539 18.1296C99.1539 19.2963 98.8894 20.3274 98.3603 21.2229C97.8447 22.1047 97.1325 22.7831 96.2235 23.2579C95.328 23.7328 94.3241 23.9702 93.2116 23.9702ZM93.2116 20.9583C93.8764 20.9583 94.4394 20.7141 94.9007 20.2257C95.3755 19.7373 95.6129 19.0386 95.6129 18.1296C95.6129 17.2206 95.3823 16.5219 94.921 16.0335C94.4733 15.545 93.9171 15.3008 93.2523 15.3008C92.5739 15.3008 92.0109 15.545 91.5632 16.0335C91.1155 16.5083 90.8916 17.207 90.8916 18.1296C90.8916 19.0386 91.1087 19.7373 91.5428 20.2257C91.9905 20.7141 92.5468 20.9583 93.2116 20.9583ZM108.123 12.3297C109.452 12.3297 110.511 12.7638 111.298 13.6321C112.098 14.4868 112.498 15.6672 112.498 17.1731V23.8074H109.039V17.6412C109.039 16.8814 108.842 16.2912 108.448 15.8707C108.055 15.4501 107.526 15.2398 106.861 15.2398C106.196 15.2398 105.667 15.4501 105.274 15.8707C104.88 16.2912 104.684 16.8814 104.684 17.6412V23.8074H101.204V12.4518H104.684V13.9577C105.036 13.4557 105.511 13.0623 106.108 12.7774C106.705 12.4789 107.377 12.3297 108.123 12.3297ZM114.733 16.705C114.733 15.3212 115.045 14.0798 115.669 12.9809C116.293 11.8684 117.141 11.0001 118.213 10.376C119.299 9.75192 120.499 9.43988 121.815 9.43988C123.362 9.43988 124.712 9.81298 125.865 10.5592C127.018 11.3054 127.859 12.3636 128.388 13.7338H126.17C125.777 12.8791 125.207 12.2211 124.461 11.7598C123.728 11.2986 122.846 11.0679 121.815 11.0679C120.825 11.0679 119.936 11.2986 119.149 11.7598C118.362 12.2211 117.745 12.8791 117.297 13.7338C116.85 14.575 116.626 15.5654 116.626 16.705C116.626 17.8311 116.85 18.8215 117.297 19.6762C117.745 20.5174 118.362 21.1686 119.149 21.6299C119.936 22.0911 120.825 22.3218 121.815 22.3218C122.846 22.3218 123.728 22.0979 124.461 21.6502C125.207 21.1889 125.777 20.5309 126.17 19.6762H128.388C127.859 21.0329 127.018 22.0844 125.865 22.8305C124.712 23.5632 123.362 23.9295 121.815 23.9295C120.499 23.9295 119.299 23.6242 118.213 23.0137C117.141 22.3896 116.293 21.5281 115.669 20.4292C115.045 19.3303 114.733 18.0889 114.733 16.705ZM133.201 14.4665C133.526 13.8288 133.987 13.3336 134.584 12.9809C135.195 12.6281 135.934 12.4518 136.803 12.4518V14.3647H136.314C134.238 14.3647 133.201 15.4908 133.201 17.7429V23.8074H131.349V12.6553H133.201V14.4665ZM149.319 17.804C149.319 18.1567 149.299 18.5298 149.258 18.9232H140.345C140.412 20.0222 140.786 20.8837 141.464 21.5078C142.156 22.1183 142.99 22.4235 143.967 22.4235C144.767 22.4235 145.432 22.2404 145.961 21.8741C146.504 21.4942 146.884 20.9922 147.101 20.3681H149.095C148.797 21.4399 148.2 22.315 147.304 22.9934C146.409 23.6581 145.297 23.9905 143.967 23.9905C142.909 23.9905 141.959 23.7531 141.118 23.2783C140.29 22.8034 139.639 22.1318 139.164 21.2636C138.689 20.3817 138.452 19.3642 138.452 18.211C138.452 17.0578 138.683 16.047 139.144 15.1787C139.605 14.3104 140.25 13.6457 141.077 13.1844C141.918 12.7095 142.882 12.4721 143.967 12.4721C145.025 12.4721 145.961 12.7028 146.775 13.164C147.589 13.6253 148.213 14.263 148.648 15.077C149.095 15.8774 149.319 16.7864 149.319 17.804ZM147.406 17.4173C147.406 16.7118 147.25 16.1081 146.938 15.6061C146.626 15.0906 146.199 14.7039 145.656 14.4461C145.127 14.1748 144.537 14.0391 143.886 14.0391C142.949 14.0391 142.149 14.3376 141.484 14.9345C140.833 15.5315 140.46 16.3591 140.365 17.4173H147.406ZM151.275 18.1906C151.275 17.051 151.506 16.0538 151.967 15.1991C152.428 14.3308 153.059 13.6592 153.86 13.1844C154.674 12.7095 155.583 12.4721 156.587 12.4721C157.455 12.4721 158.262 12.6756 159.008 13.0826C159.755 13.4761 160.324 13.9984 160.718 14.6496V8.74796H162.59V23.8074H160.718V21.7113C160.352 22.3761 159.809 22.9255 159.09 23.3597C158.371 23.7802 157.53 23.9905 156.566 23.9905C155.576 23.9905 154.674 23.7463 153.86 23.2579C153.059 22.7695 152.428 22.0844 151.967 21.2025C151.506 20.3206 151.275 19.3167 151.275 18.1906ZM160.718 18.211C160.718 17.3698 160.548 16.6372 160.209 16.0131C159.87 15.389 159.409 14.9142 158.825 14.5886C158.255 14.2494 157.625 14.0798 156.933 14.0798C156.241 14.0798 155.61 14.2426 155.04 14.5682C154.47 14.8938 154.016 15.3687 153.677 15.9928C153.337 16.6168 153.168 17.3495 153.168 18.1906C153.168 19.0453 153.337 19.7915 153.677 20.4292C154.016 21.0533 154.47 21.5349 155.04 21.8741C155.61 22.1997 156.241 22.3625 156.933 22.3625C157.625 22.3625 158.255 22.1997 158.825 21.8741C159.409 21.5349 159.87 21.0533 160.209 20.4292C160.548 19.7915 160.718 19.0521 160.718 18.211ZM166.88 10.8441C166.527 10.8441 166.228 10.722 165.984 10.4778C165.74 10.2336 165.618 9.93508 165.618 9.58234C165.618 9.22959 165.74 8.93112 165.984 8.68691C166.228 8.44271 166.527 8.3206 166.88 8.3206C167.219 8.3206 167.504 8.44271 167.734 8.68691C167.979 8.93112 168.101 9.22959 168.101 9.58234C168.101 9.93508 167.979 10.2336 167.734 10.4778C167.504 10.722 167.219 10.8441 166.88 10.8441ZM167.775 12.6553V23.8074H165.923V12.6553H167.775ZM173.394 14.1816V20.7548C173.394 21.2975 173.509 21.6841 173.74 21.9148C173.97 22.1318 174.371 22.2404 174.94 22.2404H176.304V23.8074H174.635C173.604 23.8074 172.831 23.5699 172.315 23.0951C171.8 22.6203 171.542 21.8402 171.542 20.7548V14.1816H170.097V12.6553H171.542V9.84689H173.394V12.6553H176.304V14.1816H173.394Z" fill="white"/>
<path d="M131.266 45.9879H124.572V34.0661H126.104V44.5226H131.266V45.9879ZM134.58 35.0152C134.58 35.3149 134.474 35.5702 134.263 35.7811C134.053 35.992 133.797 36.0975 133.498 36.0975C133.198 36.0975 132.943 35.992 132.732 35.7811C132.521 35.5702 132.415 35.3149 132.415 35.0152C132.415 34.7155 132.521 34.4602 132.732 34.2493C132.943 34.0384 133.198 33.9329 133.498 33.9329C133.797 33.9329 134.053 34.0384 134.263 34.2493C134.474 34.4602 134.58 34.7155 134.58 35.0152ZM134.263 37.8291V45.9879H132.732V37.8291H134.263ZM142.501 43.7234C142.501 44.4338 142.19 45.0332 141.568 45.5216C140.947 46.0101 140.164 46.2543 139.221 46.2543C138.399 46.2543 137.678 46.0434 137.056 45.6215C136.435 45.1886 135.991 44.6225 135.724 43.9232L137.089 43.3404C137.289 43.8288 137.578 44.2118 137.955 44.4893C138.344 44.7557 138.766 44.8889 139.221 44.8889C139.709 44.8889 140.114 44.7835 140.436 44.5726C140.769 44.3617 140.936 44.1119 140.936 43.8233C140.936 43.3016 140.536 42.9186 139.737 42.6744L138.338 42.3248C136.751 41.9251 135.957 41.1592 135.957 40.027C135.957 39.2833 136.257 38.6894 136.856 38.2454C137.467 37.7903 138.244 37.5627 139.187 37.5627C139.909 37.5627 140.558 37.7348 141.136 38.0789C141.724 38.423 142.135 38.8837 142.368 39.4609L141.002 40.027C140.847 39.6829 140.592 39.4165 140.236 39.2278C139.892 39.028 139.504 38.9281 139.071 38.9281C138.671 38.9281 138.311 39.028 137.989 39.2278C137.678 39.4276 137.522 39.6718 137.522 39.9604C137.522 40.4266 137.961 40.7596 138.838 40.9594L140.07 41.2758C141.691 41.6754 142.501 42.4913 142.501 43.7234ZM146.983 46.1211C146.317 46.1211 145.762 45.9157 145.318 45.505C144.885 45.0943 144.663 44.5226 144.652 43.79V39.2278H143.22V37.8291H144.652V35.3316H146.184V37.8291H148.182V39.2278H146.184V43.2905C146.184 43.8344 146.289 44.2063 146.5 44.4061C146.711 44.5948 146.95 44.6891 147.216 44.6891C147.338 44.6891 147.455 44.678 147.566 44.6558C147.688 44.6225 147.799 44.5837 147.899 44.5393L148.382 45.9046C147.982 46.0489 147.516 46.1211 146.983 46.1211ZM151.702 35.0152C151.702 35.3149 151.596 35.5702 151.385 35.7811C151.175 35.992 150.919 36.0975 150.62 36.0975C150.32 36.0975 150.065 35.992 149.854 35.7811C149.643 35.5702 149.537 35.3149 149.537 35.0152C149.537 34.7155 149.643 34.4602 149.854 34.2493C150.065 34.0384 150.32 33.9329 150.62 33.9329C150.919 33.9329 151.175 34.0384 151.385 34.2493C151.596 34.4602 151.702 34.7155 151.702 35.0152ZM151.385 37.8291V45.9879H149.854V37.8291H151.385ZM153.379 37.8291H154.844V38.9614H154.911C155.144 38.5618 155.499 38.2287 155.976 37.9623C156.465 37.6959 156.97 37.5627 157.492 37.5627C158.491 37.5627 159.257 37.8513 159.789 38.4285C160.333 38.9947 160.605 39.805 160.605 40.8595V45.9879H159.073V40.9594C159.04 39.6274 158.369 38.9614 157.059 38.9614C156.448 38.9614 155.938 39.2111 155.527 39.7106C155.116 40.199 154.911 40.7874 154.911 41.4756V45.9879H153.379V37.8291ZM165.985 44.8556C166.74 44.8556 167.356 44.5837 167.833 44.0398C168.333 43.4958 168.583 42.7854 168.583 41.9085C168.583 41.0538 168.333 40.3489 167.833 39.7939C167.345 39.2389 166.729 38.9614 165.985 38.9614C165.253 38.9614 164.636 39.2389 164.137 39.7939C163.637 40.3489 163.388 41.0538 163.388 41.9085C163.388 42.7743 163.637 43.4792 164.137 44.0231C164.636 44.5781 165.253 44.8556 165.985 44.8556ZM165.935 49.8508C165.48 49.8508 165.053 49.7897 164.653 49.6676C164.254 49.5566 163.887 49.3956 163.554 49.1847C163.232 48.9738 162.955 48.7241 162.722 48.4355C162.489 48.1469 162.311 47.825 162.189 47.4697L163.637 46.8703C163.804 47.3476 164.093 47.7306 164.503 48.0192C164.914 48.3078 165.391 48.4521 165.935 48.4521C166.768 48.4521 167.417 48.2024 167.883 47.7029C168.35 47.2033 168.583 46.5151 168.583 45.6382V44.8556H168.516C168.227 45.2885 167.833 45.6326 167.334 45.888C166.845 46.1322 166.313 46.2543 165.735 46.2543C164.67 46.2543 163.754 45.838 162.988 45.0055C162.233 44.1508 161.856 43.1184 161.856 41.9085C161.856 40.6986 162.233 39.6718 162.988 38.8282C163.754 37.9845 164.67 37.5627 165.735 37.5627C166.313 37.5627 166.845 37.6904 167.334 37.9457C167.833 38.1899 168.227 38.5285 168.516 38.9614H168.583V37.8291H170.048V45.6382C170.048 46.948 169.676 47.9748 168.932 48.7185C168.177 49.4733 167.178 49.8508 165.935 49.8508ZM178.078 43.7234C178.078 44.4338 177.767 45.0332 177.146 45.5216C176.524 46.0101 175.742 46.2543 174.798 46.2543C173.977 46.2543 173.255 46.0434 172.634 45.6215C172.012 45.1886 171.568 44.6225 171.301 43.9232L172.667 43.3404C172.867 43.8288 173.155 44.2118 173.533 44.4893C173.921 44.7557 174.343 44.8889 174.798 44.8889C175.286 44.8889 175.692 44.7835 176.014 44.5726C176.347 44.3617 176.513 44.1119 176.513 43.8233C176.513 43.3016 176.113 42.9186 175.314 42.6744L173.916 42.3248C172.328 41.9251 171.535 41.1592 171.535 40.027C171.535 39.2833 171.834 38.6894 172.434 38.2454C173.044 37.7903 173.821 37.5627 174.765 37.5627C175.486 37.5627 176.136 37.7348 176.713 38.0789C177.301 38.423 177.712 38.8837 177.945 39.4609L176.58 40.027C176.424 39.6829 176.169 39.4165 175.814 39.2278C175.47 39.028 175.081 38.9281 174.648 38.9281C174.249 38.9281 173.888 39.028 173.566 39.2278C173.255 39.4276 173.1 39.6718 173.1 39.9604C173.1 40.4266 173.538 40.7596 174.415 40.9594L175.647 41.2758C177.268 41.6754 178.078 42.4913 178.078 43.7234Z" fill="white"/>
<path d="M28.8001 25.912C30.424 26.9109 31.0066 29.039 29.7918 30.5085C28.0569 32.607 25.8748 34.2624 23.4074 35.3254C19.9222 36.827 16.0649 37.0619 12.44 35.9933C8.81516 34.9246 5.62758 32.6128 3.37679 29.42C1.12601 26.2273 -0.0607853 22.3342 0.00239677 18.3506C0.0655788 14.3671 1.37516 10.5183 3.72593 7.40746C6.07669 4.29657 9.33579 2.09937 12.9925 1.16018C16.6492 0.220991 20.4969 0.592884 23.9325 2.21758C26.3661 3.3684 28.4956 5.10171 30.1633 7.26238C31.3281 8.77142 30.6746 10.8789 29.0174 11.821C27.2447 12.8288 25.0178 12.0784 23.5159 10.699C22.7821 10.0251 21.9541 9.46409 21.0552 9.039C19.0455 8.08863 16.7948 7.87109 14.6558 8.42047C12.5168 8.96985 10.6104 10.2551 9.23529 12.0748C7.8602 13.8946 7.09415 16.1459 7.05719 18.4761C7.02024 20.8063 7.71445 23.0836 9.03106 24.9512C10.3477 26.8188 12.2122 28.1711 14.3326 28.7962C16.453 29.4213 18.7093 29.2839 20.748 28.4055C21.6537 28.0153 22.4937 27.4887 23.2446 26.8471C24.7996 25.5186 27.0581 24.8403 28.8001 25.912Z" fill="#FFAB2E"/>
<path d="M22.5387 22.0392C23.7592 22.7089 24.1817 24.2977 23.1368 25.2176C22.3414 25.9179 21.4129 26.4809 20.3922 26.8732C18.547 27.5823 16.5049 27.6932 14.5859 27.1886C12.6668 26.6839 10.9793 25.5922 9.78771 24.0846C8.59612 22.5769 7.96782 20.7384 8.00127 18.8573C8.03472 16.9762 8.72803 15.1587 9.97255 13.6897C11.2171 12.2207 12.9425 11.1831 14.8784 10.7396C16.8143 10.2961 18.8513 10.4717 20.6702 11.2389C21.6751 11.6628 22.5821 12.2541 23.3516 12.978C24.3658 13.9321 23.89 15.5062 22.648 16.136C21.487 16.7248 20.0679 16.2015 18.9046 15.6173C18.8228 15.5762 18.7393 15.5377 18.6543 15.5018C17.8344 15.156 16.9163 15.0769 16.0437 15.2768C15.1711 15.4767 14.3934 15.9443 13.8325 16.6065C13.2715 17.2686 12.959 18.0878 12.9439 18.9357C12.9288 19.7836 13.212 20.6123 13.7491 21.2918C14.2862 21.9714 15.0469 22.4635 15.9119 22.6909C16.7769 22.9184 17.6973 22.8684 18.529 22.5488C18.6193 22.5141 18.7079 22.4764 18.7949 22.4359C19.9711 21.8879 21.401 21.415 22.5387 22.0392Z" fill="#FFAB2E"/>
</svg>
